<svg xmlns="http://www.w3.org/2000/svg" width="20" height="15" viewBox="0 0 20 15">
  <path d="M7 13.5029C7.001 13.7779 7.225 13.9999 7.5 13.9999L18.5 13.9999C18.775 13.9999 18.999 13.7769 19 13.5029 18.999 13.4679 18.968 12.6079 18.261 11.7689 17.287 10.6119 15.468 10.0009 13 10.0009 10.532 10.0009 8.713 10.6129 7.739 11.7689 7.032 12.6089 7.001 13.4679 7 13.5029M18.5 14.9999L7.5 14.9999C6.673 14.9999 6 14.3269 6 13.4999 6 13.4519 6.011 12.3099 6.924 11.1849 7.449 10.5389 8.165 10.0269 9.052 9.6629 10.123 9.2229 11.452 9.0009 13 9.0009 14.548 9.0009 15.876 9.2239 16.948 9.6629 17.835 10.0269 18.551 10.5389 19.076 11.1849 19.99 12.3099 20 13.4519 20 13.4999 20 14.3269 19.327 14.9999 18.5 14.9999M13 1C11.346 1 10 2.346 10 4 10 5.654 11.346 7 13 7 14.654 7 16 5.654 16 4 16 2.346 14.654 1 13 1M13 8C10.794 8 9 6.206 9 4 9 1.794 10.794 0 13 0 15.206 0 17 1.794 17 4 17 6.206 15.206 8 13 8M4.5 15L1.5 15C.673 15 0 14.327 0 13.5 0 13.463.008 12.573.663 11.7 1.041 11.195 1.557 10.796 2.196 10.512 2.96 10.172 3.904 10 5.001 10 5.18 10 5.357 10.005 5.528 10.014 5.804 10.029 6.015 10.264 6.001 10.54 5.987 10.816 5.751 11.028 5.475 11.013 5.322 11.005 5.163 11.001 5.002 11.001 1.108 11.001 1.005 13.38 1.002 13.504 1.003 13.778 1.227 14.001 1.502 14.001L4.502 14.001C4.778 14.001 5.002 14.225 5.002 14.501 5.002 14.777 4.778 15.001 4.502 15.001L4.5 15zM5 4C3.897 4 3 4.897 3 6 3 7.103 3.897 8 5 8 6.103 8 7 7.103 7 6 7 4.897 6.103 4 5 4M5 9C3.346 9 2 7.654 2 6 2 4.346 3.346 3 5 3 6.654 3 8 4.346 8 6 8 7.654 6.654 9 5 9"/>
</svg>
